<?xml version="1.0" standalone="no"?><!DOCTYPE svg PUBLIC "-//W3C//DTD SVG 1.1//EN" "http://www.w3.org/Graphics/SVG/1.1/DTD/svg11.dtd"><svg t="1722929155818" class="icon" viewBox="0 0 1024 1024" version="1.1" xmlns="http://www.w3.org/2000/svg" p-id="11369" xmlns:xlink="http://www.w3.org/1999/xlink" width="200" height="200"><path d="M625.066667 488.533333c2.133333 0 4.266667 2.133333 8.533333 2.133334 4.266667 2.133333 10.666667 4.266667 21.333333 8.533333s19.2 8.533333 27.733334 14.933333 19.2 12.8 29.866666 23.466667c10.666667 10.666667 21.333333 19.2 27.733334 32 8.533333 10.666667 14.933333 23.466667 19.2 40.533333 6.4 14.933333 8.533333 32 8.533333 49.066667 0 25.6-4.266667 49.066667-14.933333 70.4-10.666667 21.333333-23.466667 40.533333-40.533334 55.466667-17.066667 14.933333-36.266667 27.733333-55.466666 38.4-21.333333 10.666667-40.533333 17.066667-61.866667 23.466666-21.333333 4.266667-40.533333 6.4-57.6 6.4h-283.733333v-51.2c14.933333-2.133333 29.866667-8.533333 40.533333-19.2s17.066667-21.333333 17.066667-36.266666v-471.466667-19.2c0-4.266667 0-8.533333-2.133334-12.8s-2.133333-8.533333-4.266666-10.666667c-2.133333-2.133333-4.266667-4.266667-10.666667-8.533333-4.266667-2.133333-10.666667-6.4-14.933333-6.4-6.4-2.133333-14.933333-4.266667-23.466667-6.4v-40.533333h268.8c21.333333 0 42.666667 4.266667 66.133333 10.666666 21.333333 8.533333 42.666667 19.2 61.866667 32 19.2 12.8 34.133333 32 44.8 53.333334 12.8 21.333333 17.066667 44.8 17.066667 70.4 0 19.2-2.133333 38.4-8.533334 55.466666-6.4 17.066667-12.8 32-21.333333 42.666667s-17.066667 21.333333-25.6 27.733333c-8.533333 8.533333-14.933333 14.933333-21.333333 17.066667l-12.8 8.533333z m-200.533334-34.133333h78.933334c29.866667 0 53.333333-8.533333 74.666666-27.733333s29.866667-42.666667 29.866667-70.4c0-14.933333-2.133333-29.866667-4.266667-40.533334s-8.533333-21.333333-17.066666-32-19.2-17.066667-36.266667-23.466666c-14.933333-4.266667-36.266667-8.533333-59.733333-8.533334h-66.133334v202.666667z m0 285.866667h123.733334c29.866667 0 53.333333-8.533333 68.266666-27.733334 14.933333-19.2 23.466667-44.8 23.466667-74.666666 0-34.133333-12.8-64-36.266667-87.466667s-53.333333-36.266667-89.6-36.266667h-89.6v226.133334z" p-id="11370"></path></svg>