<?xml version="1.0" standalone="no"?><!DOCTYPE svg PUBLIC "-//W3C//DTD SVG 1.1//EN" "http://www.w3.org/Graphics/SVG/1.1/DTD/svg11.dtd"><svg t="1724744700324" class="icon" viewBox="0 0 1024 1024" version="1.1" xmlns="http://www.w3.org/2000/svg" p-id="5860" xmlns:xlink="http://www.w3.org/1999/xlink" width="200" height="200"><path d="M75.09333333 75.09333333v873.81333334h873.81333334V75.09333333z m800.99555556 800.99555556H147.91111111V147.91111111h728.17777778z" fill="#515151" p-id="5861"></path><path d="M517.82542222 288.26737778l-51.51857777-51.51857778L351.80088889 351.25475555l-68.99484444-68.8128-51.33653334 51.51857778L351.80088889 454.29191111l166.02453333-166.02453333z m199.8848 308.56533333l-53.88515555 54.0672-55.15946667-55.15946666-51.51857778 51.51857777 55.15946667 54.97742223-58.43626667 58.6183111L605.20675555 812.37333333l58.61831112-58.61831111 57.344 57.52604445 51.51857778-51.51857778-57.344-57.52604444 53.88515555-53.88515556-51.51857778-51.51857778z m-449.81361777 107.86133334l436.90666666-436.88846223 51.48216889 51.50037333-436.90666667 436.88846223z" fill="#515151" p-id="5862"></path></svg>