<?xml version="1.0" standalone="no"?><!DOCTYPE svg PUBLIC "-//W3C//DTD SVG 1.1//EN" "http://www.w3.org/Graphics/SVG/1.1/DTD/svg11.dtd"><svg t="1724744661702" class="icon" viewBox="0 0 1024 1024" version="1.1" xmlns="http://www.w3.org/2000/svg" p-id="4788" xmlns:xlink="http://www.w3.org/1999/xlink" width="200" height="200"><path d="M423.488107 566.307883 51.461045 566.307883c-16.220427 0-29.369911 13.149485-29.369911 29.370935l0 372.026038c0 16.22145 13.149485 29.370935 29.369911 29.370935l372.026038 0c16.220427 0 29.370935-13.149485 29.370935-29.370935L452.858018 595.678818C452.858018 579.458391 439.708534 566.307883 423.488107 566.307883zM413.698137 938.334945c0 10.8143-8.766664 19.579941-19.579941 19.579941L80.83198 957.914886c-10.8143 0-19.579941-8.766664-19.579941-19.579941L61.252039 625.048729c0-10.8143 8.766664-19.579941 19.579941-19.579941l313.285193 0c10.8143 0 19.579941 8.766664 19.579941 19.579941l0 313.286216L413.698137 938.334945zM971.737706 18.058284 599.710644 18.058284c-16.220427 0-29.370935 13.149485-29.370935 29.370935l0 372.027062c0 16.220427 13.149485 29.370935 29.370935 29.370935l372.027062 0c16.220427 0 29.369911-13.149485 29.369911-29.370935L1001.107617 47.428196C1001.10864 31.207769 987.958132 18.058284 971.737706 18.058284zM961.947735 390.085346c0 10.8143-8.766664 19.579941-19.579941 19.579941L629.081579 409.665287c-10.8143 0-19.579941-8.766664-19.579941-19.579941L609.501638 76.79913c0-10.8143 8.766664-19.579941 19.579941-19.579941l313.286216 0c10.8143 0 19.579941 8.766664 19.579941 19.579941L961.947735 390.085346zM423.488107 18.058284 51.461045 18.058284c-16.220427 0-29.369911 13.149485-29.369911 29.370935l0 372.027062c0 16.220427 13.149485 29.370935 29.369911 29.370935l372.026038 0c16.220427 0 29.370935-13.149485 29.370935-29.370935L452.858018 47.428196C452.858018 31.207769 439.708534 18.058284 423.488107 18.058284zM413.698137 390.085346c0 10.8143-8.766664 19.579941-19.579941 19.579941L80.83198 409.665287c-10.8143 0-19.579941-8.766664-19.579941-19.579941L61.252039 76.79913c0-10.8143 8.766664-19.579941 19.579941-19.579941l313.285193 0c10.8143 0 19.579941 8.766664 19.579941 19.579941l0 313.286216L413.698137 390.085346zM971.737706 566.307883 599.710644 566.307883c-16.220427 0-29.370935 13.149485-29.370935 29.370935l0 372.026038c0 16.22145 13.149485 29.370935 29.370935 29.370935l372.027062 0c16.220427 0 29.369911-13.149485 29.369911-29.370935L1001.107617 595.678818C1001.10864 579.458391 987.958132 566.307883 971.737706 566.307883zM949.214736 702.914144 768.418021 887.134843c-1.471514 1.499144-3.3984 2.249227-5.326309 2.249227-1.926886 0-3.854794-0.750083-5.325285-2.249227l-92.605118-94.358041-17.273409 27.389814c-2.943029 2.99931-7.709589 2.99931-10.652618 0-2.943029-2.998287-17.943674-17.645892-15.000646-20.644179l37.601386-38.08848c2.942005-2.99931 7.709589-2.99931 10.651594 0l92.605118 94.358041 175.470407-178.792059c2.943029-2.99931 7.709589 2.27174 10.652618 5.272074C952.156742 685.269275 952.156742 699.915857 949.214736 702.914144z" fill="#515151" p-id="4789"></path></svg>