<?xml version="1.0" standalone="no"?><!DOCTYPE svg PUBLIC "-//W3C//DTD SVG 1.1//EN" "http://www.w3.org/Graphics/SVG/1.1/DTD/svg11.dtd"><svg t="1723804160732" class="icon" viewBox="0 0 1024 1024" version="1.1" xmlns="http://www.w3.org/2000/svg" p-id="32741" data-spm-anchor-id="a313x.search_index.0.i34.23e03a81hfbPIP" xmlns:xlink="http://www.w3.org/1999/xlink" width="200" height="200"><path d="M512 959.5C265.25 959.5 64.5 758.75 64.5 512S265.25 64.5 512 64.5 959.5 265.25 959.5 512 758.75 959.5 512 959.5z m0-818.29c-204.45 0-370.79 166.33-370.79 370.79S307.55 882.79 512 882.79 882.79 716.45 882.79 512 716.45 141.21 512 141.21z" p-id="32742" fill="#ffffff" data-spm-anchor-id="a313x.search_index.0.i37.23e03a81hfbPIP" class="selected"></path><path d="M455.43 778.62c-8.85 0-17.76-3.05-24.98-9.26l-195.3-167.87c-16.07-13.81-17.9-38.03-4.1-54.09 13.82-16.07 38.04-17.89 54.09-4.1l195.29 167.86c16.07 13.81 17.9 38.03 4.1 54.09-7.59 8.84-18.31 13.37-29.1 13.37z" p-id="32743" fill="#1afa29" data-spm-anchor-id="a313x.search_index.0.i36.23e03a81hfbPIP" class=""></path><path d="M469.89 778.62c-8.5 0-17.07-2.81-24.19-8.6-16.43-13.37-18.92-37.52-5.54-53.96L734.1 354.69c13.36-16.41 37.52-18.92 53.96-5.54 16.43 13.37 18.92 37.52 5.54 53.96L499.67 764.47c-7.58 9.32-18.63 14.15-29.78 14.15z" p-id="32744" fill="#1afa29" data-spm-anchor-id="a313x.search_index.0.i35.23e03a81hfbPIP" class=""></path></svg>