<?xml version="1.0" standalone="no"?><!DOCTYPE svg PUBLIC "-//W3C//DTD SVG 1.1//EN" "http://www.w3.org/Graphics/SVG/1.1/DTD/svg11.dtd"><svg t="1741330400897" class="icon" viewBox="0 0 1024 1024" version="1.1" xmlns="http://www.w3.org/2000/svg" p-id="6856" xmlns:xlink="http://www.w3.org/1999/xlink" width="32" height="32"><path d="M674.133333 21.333333h-426.666666c-68.266667 0-123.733333 59.733333-123.733334 128v721.066667c0 72.533333 55.466667 128 123.733334 128h529.066666c68.266667 0 123.733333-59.733333 123.733334-128V256L674.133333 21.333333z m76.8 887.466667H273.066667c-29.866667 0-51.2-25.6-51.2-55.466667V170.666667c0-29.866667 25.6-55.466667 51.2-55.466667h354.133333v119.466667c0 34.133333 29.866667 64 59.733333 64h110.933334v558.933333c0 29.866667-21.333333 51.2-46.933334 51.2zM644.266667 332.8H358.4c-25.6 0-46.933333 25.6-46.933333 51.2 0 29.866667 21.333333 51.2 46.933333 51.2h285.866667c25.6 0 46.933333-21.333333 46.933333-51.2 0-25.6-21.333333-51.2-46.933333-51.2z m-209.066667 341.333333H358.4c-25.6 0-46.933333 21.333333-46.933333 51.2s21.333333 51.2 46.933333 51.2h76.8c25.6 0 46.933333-21.333333 46.933333-51.2 4.266667-25.6-21.333333-51.2-46.933333-51.2z m140.8-153.6c-8.533333-8.533333-21.333333-17.066667-34.133333-17.066666H358.4c-12.8 0-25.6 4.266667-34.133333 17.066666-4.266667 4.266667-8.533333 8.533333-8.533334 17.066667-4.266667 4.266667-4.266667 12.8-4.266666 21.333333s0 12.8 4.266666 21.333334c8.533333 17.066667 25.6 29.866667 46.933334 29.866666h179.2c12.8 0 21.333333-4.266667 29.866666-12.8 4.266667-4.266667 8.533333-8.533333 12.8-17.066666 4.266667-8.533333 4.266667-12.8 4.266667-21.333334s0-12.8-4.266667-21.333333-4.266667-12.8-8.533333-17.066667z" fill="#606060" p-id="6857"></path></svg>