<?xml version="1.0" standalone="no"?><!DOCTYPE svg PUBLIC "-//W3C//DTD SVG 1.1//EN" "http://www.w3.org/Graphics/SVG/1.1/DTD/svg11.dtd"><svg t="1722841022592" class="icon" viewBox="0 0 1024 1024" version="1.1" xmlns="http://www.w3.org/2000/svg" p-id="9229" xmlns:xlink="http://www.w3.org/1999/xlink" width="200" height="200"><path d="M489.344 105.344A32 32 0 0 1 544 128v149.376a32 32 0 0 1-64 0V128a32 32 0 0 1 9.344-22.656zM489.344 403.968a32 32 0 0 1 54.656 22.656v170.752a32 32 0 0 1-64 0V426.624a32 32 0 0 1 9.344-22.656zM489.344 724.032a32 32 0 0 1 54.656 22.592V896a32 32 0 0 1-64 0v-149.376a32 32 0 0 1 9.344-22.656zM126.016 312c-15.04 4.16-28.864 11.968-40.32 22.592-19.392 18.176-26.304 43.328-29.44 71.296-2.944 25.92-2.88 56.768-2.88 96.512v19.2c0 39.68 0 70.592 2.88 96.512 3.136 27.968 10.048 53.12 29.44 71.296 11.456 10.56 25.28 18.432 40.32 22.592 25.792 7.168 50.944-1.152 75.136-14.08 23.424-12.608 49.216-30.72 82.816-54.272l6.528-4.608c27.264-19.2 48.448-33.984 65.408-49.152 17.6-15.808 31.936-33.92 36.608-56.768a105.536 105.536 0 0 0 0-42.24c-4.672-22.848-19.008-40.96-36.608-56.768-16.96-15.168-38.144-30.016-65.408-49.152l-6.528-4.608c-33.6-23.552-59.392-41.664-82.816-54.208-24.192-12.992-49.344-21.312-75.136-14.144z m17.088 61.632c3.008-0.832 9.6-0.832 27.776 8.896 18.112 9.664 44.288 27.712 79.36 52.352 28.992 20.352 50.112 35.456 62.912 46.848 12.736 11.456 15.744 17.28 16.704 22.016a41.344 41.344 0 0 1 0 16.512c-0.96 4.736-3.968 10.56-16.704 22.016-12.8 11.392-33.92 26.496-62.912 46.848-35.072 24.64-61.248 42.688-79.36 52.352-18.112 9.728-24.768 9.728-27.776 8.96a33.28 33.28 0 0 1-13.76-7.808c-2.816-2.624-7.04-9.984-9.472-31.616-2.432-21.632-2.496-54.592-2.496-99.008s0.064-77.376 2.496-99.008c2.432-21.632 6.656-28.992 9.472-31.616a33.28 33.28 0 0 1 13.76-7.744zM897.984 312c-25.792-7.168-50.944 1.152-75.136 14.08-23.488 12.608-49.28 30.72-82.88 54.336l-6.4 4.48c-27.328 19.2-48.512 34.048-65.408 49.28-17.664 15.744-32 33.92-36.672 56.704a105.152 105.152 0 0 0 0 42.24c4.672 22.848 19.008 40.96 36.608 56.768 16.96 15.168 38.144 30.016 65.408 49.152l6.464 4.544c33.664 23.616 59.392 41.728 82.88 54.272 24.192 12.992 49.344 21.312 75.136 14.144 15.04-4.16 28.864-11.968 40.32-22.656 19.392-18.112 26.24-43.264 29.312-71.232 3.008-26.816 3.008-58.88 3.008-100.672v-10.88c0-41.792 0-73.92-3.008-100.672-3.136-27.968-9.92-53.12-29.376-71.296a97.536 97.536 0 0 0-40.256-22.592z m-17.088 61.632c4.928 1.344 9.6 3.968 13.632 7.68 2.816 2.688 7.168 10.048 9.6 31.68 2.432 21.632 2.496 54.592 2.496 99.008s-0.064 77.376-2.496 99.008c-2.432 21.632-6.784 28.992-9.6 31.616a32.896 32.896 0 0 1-13.632 7.744c-3.008 0.832-9.792 0.832-27.904-8.896-18.112-9.664-44.16-27.712-79.232-52.352-28.992-20.352-50.112-35.456-62.912-46.848-12.736-11.456-15.744-17.28-16.704-22.016a41.408 41.408 0 0 1 0-16.512c0.96-4.736 3.968-10.56 16.704-22.016 12.8-11.392 33.92-26.496 62.912-46.848 35.072-24.64 61.12-42.688 79.232-52.352 18.112-9.728 24.96-9.728 27.904-8.96z" fill="#333333" p-id="9230"></path></svg>