<?xml version="1.0" standalone="no"?><!DOCTYPE svg PUBLIC "-//W3C//DTD SVG 1.1//EN" "http://www.w3.org/Graphics/SVG/1.1/DTD/svg11.dtd"><svg t="1722840961927" class="icon" viewBox="0 0 1024 1024" version="1.1" xmlns="http://www.w3.org/2000/svg" p-id="9067" xmlns:xlink="http://www.w3.org/1999/xlink" width="200" height="200"><path d="M512 96a32 32 0 0 0-32 32v149.376a32 32 0 1 0 64 0V128a32 32 0 0 0-16-27.776A32 32 0 0 0 512 96zM145.28 309.376a73.984 73.984 0 0 0-30.272 6.4 98.048 98.048 0 0 0-36.032 25.984 78.464 78.464 0 0 0-10.24 16 99.392 99.392 0 0 0-6.848 18.112 213.312 213.312 0 0 0-5.632 30.016c-0.768 6.976-1.28 14.336-1.728 22.144-0.448 7.744-0.768 16-0.896 24.704-0.32 17.472-0.256 37.056-0.256 59.264 0 22.208-0.064 41.792 0.256 59.264 0.128 8.704 0.448 16.96 0.896 24.704 0.384 7.808 0.96 15.168 1.728 22.144a213.312 213.312 0 0 0 5.632 30.016 116.864 116.864 0 0 0 6.848 18.112 84.672 84.672 0 0 0 10.24 16 76.864 76.864 0 0 0 15.744 14.528 97.088 97.088 0 0 0 20.288 11.52 95.36 95.36 0 0 0 20.608 5.76 72.768 72.768 0 0 0 19.136 0.064 90.88 90.88 0 0 0 18.752-4.224 186.88 186.88 0 0 0 27.648-12.032c6.016-3.2 12.16-6.784 18.56-10.752 6.464-3.968 13.248-8.32 20.288-12.992 14.08-9.408 29.44-20.288 46.976-32.64 14.528-10.112 27.392-19.072 38.784-27.52 5.696-4.16 10.944-8.192 16-12.16 4.992-4.032 9.728-7.936 14.08-11.904a173.76 173.76 0 0 0 18.176-18.88 112 112 0 0 0 13.248-21.632 80.512 80.512 0 0 0 5.248-16.256 104.704 104.704 0 0 0 0-42.24 79.488 79.488 0 0 0-8.96-23.744 100.032 100.032 0 0 0-9.6-14.08 173.76 173.76 0 0 0-18.112-18.88 313.728 313.728 0 0 0-14.08-11.904 539.456 539.456 0 0 0-16-12.288c-11.392-8.32-24.32-17.28-38.784-27.52-17.536-12.288-32.896-23.168-46.976-32.64-7.04-4.672-13.824-8.96-20.224-12.928a355.008 355.008 0 0 0-18.624-10.752 187.968 187.968 0 0 0-27.648-12.032 109.312 109.312 0 0 0-18.752-4.224 79.68 79.68 0 0 0-9.472-0.512z m733.44 0a79.808 79.808 0 0 0-18.88 2.112 134.4 134.4 0 0 0-18.752 6.016c-6.144 2.496-12.16 5.376-18.24 8.64a357.12 357.12 0 0 0-18.56 10.752c-6.464 3.968-13.248 8.32-20.288 12.992-14.08 9.408-29.44 20.288-46.976 32.64-14.528 10.176-27.392 19.072-38.784 27.52a536.128 536.128 0 0 0-16 12.16 310.08 310.08 0 0 0-14.08 11.904 173.184 173.184 0 0 0-18.176 18.88 113.728 113.728 0 0 0-13.248 21.632 80.448 80.448 0 0 0-5.248 16.256 104.832 104.832 0 0 0 0 42.24 79.488 79.488 0 0 0 8.96 23.744 101.376 101.376 0 0 0 9.6 14.08 173.184 173.184 0 0 0 18.112 18.88c4.352 4.032 9.088 7.936 14.08 11.904 5.056 4.032 10.304 8.064 16 12.288 11.392 8.32 24.32 17.28 38.784 27.52 17.536 12.288 32.896 23.168 46.976 32.64 7.04 4.672 13.824 8.96 20.224 12.928 6.464 3.968 12.608 7.552 18.624 10.752 6.08 3.2 12.16 6.144 18.304 8.64a138.112 138.112 0 0 0 18.688 6.016 89.472 89.472 0 0 0 18.88 2.112 73.92 73.92 0 0 0 30.272-6.4 97.664 97.664 0 0 0 36.032-25.984 77.248 77.248 0 0 0 10.24-16 117.056 117.056 0 0 0 9.216-27.776c1.408-6.528 2.368-13.376 3.2-20.352a390.4 390.4 0 0 0 1.728-22.144c0.384-7.744 0.64-16 0.832-24.704A3001.6 3001.6 0 0 0 970.624 512c0-22.208 0-41.792-0.384-59.264a738.752 738.752 0 0 0-0.896-24.768 390.336 390.336 0 0 0-1.728-22.08 215.424 215.424 0 0 0-3.136-20.416 117.376 117.376 0 0 0-13.888-36.032 77.632 77.632 0 0 0-21.312-22.208 98.304 98.304 0 0 0-20.288-11.52 94.912 94.912 0 0 0-20.608-5.76c-3.2-0.384-6.4-0.576-9.6-0.576zM512 394.624a32 32 0 0 0-32 32v170.752a32 32 0 1 0 64 0V426.624a32 32 0 0 0-16-27.776 32 32 0 0 0-16-4.224z m0 320a32 32 0 0 0-32 32V896a32 32 0 1 0 64 0v-149.376a32 32 0 0 0-11.392-24.512 32.32 32.32 0 0 0-20.608-7.488z" fill="#333333" p-id="9068"></path></svg>