<?xml version="1.0" standalone="no"?><!DOCTYPE svg PUBLIC "-//W3C//DTD SVG 1.1//EN" "http://www.w3.org/Graphics/SVG/1.1/DTD/svg11.dtd"><svg t="1729595583471" class="icon" viewBox="0 0 1024 1024" version="1.1" xmlns="http://www.w3.org/2000/svg" p-id="6022" xmlns:xlink="http://www.w3.org/1999/xlink" width="200" height="200"><path d="M512 297.9c99.1 0 200.2 66.7 267.5 122.6 39.9 33.1 73 66.6 95.9 91.5-22.9 24.8-56 58.3-95.9 91.5-67.3 55.9-168.4 122.6-267.5 122.6s-200.2-66.7-267.5-122.6c-39.9-33.1-73-66.6-95.9-91.5 22.9-24.8 56-58.3 95.9-91.5 67.3-55.9 168.4-122.6 267.5-122.6m0-64C281.7 233.9 64 512 64 512s217.7 278.1 448 278.1S960 512 960 512 742.3 233.9 512 233.9z" fill="#47444F" p-id="6023"></path><path d="M512 451c33.6 0 61 27.4 61 61s-27.4 61-61 61-61-27.4-61-61 27.4-61 61-61m0-64c-69 0-125 56-125 125s56 125 125 125 125-56 125-125-56-125-125-125z" fill="#47444F" p-id="6024"></path></svg>