<?xml version="1.0" standalone="no"?><!DOCTYPE svg PUBLIC "-//W3C//DTD SVG 1.1//EN" "http://www.w3.org/Graphics/SVG/1.1/DTD/svg11.dtd"><svg t="1741330493187" class="icon" viewBox="0 0 1024 1024" version="1.1" xmlns="http://www.w3.org/2000/svg" p-id="8066" xmlns:xlink="http://www.w3.org/1999/xlink" width="32" height="32"><path d="M0 0m73.142857 0l877.714286 0q73.142857 0 73.142857 73.142857l0 877.714286q0 73.142857-73.142857 73.142857l-877.714286 0q-73.142857 0-73.142857-73.142857l0-877.714286q0-73.142857 73.142857-73.142857Z" fill="#F0F0F0" p-id="8067"></path><path d="M146.285714 219.428571h658.285715a36.571429 36.571429 0 0 1 0 73.142858H146.285714a36.571429 36.571429 0 0 1 0-73.142858z m0 182.857143h146.285715a36.571429 36.571429 0 0 1 0 73.142857H146.285714a36.571429 36.571429 0 0 1 0-73.142857z m0 365.714286h182.857143a36.571429 36.571429 0 0 1 0 73.142857H146.285714a36.571429 36.571429 0 0 1 0-73.142857z m0-182.857143h146.285715a36.571429 36.571429 0 0 1 0 73.142857H146.285714a36.571429 36.571429 0 0 1 0-73.142857z" fill="#666666" p-id="8068"></path></svg>