<?xml version="1.0" standalone="no"?><!DOCTYPE svg PUBLIC "-//W3C//DTD SVG 1.1//EN" "http://www.w3.org/Graphics/SVG/1.1/DTD/svg11.dtd"><svg t="1722577663445" class="icon" viewBox="0 0 1024 1024" version="1.1" xmlns="http://www.w3.org/2000/svg" p-id="7534" xmlns:xlink="http://www.w3.org/1999/xlink" width="200" height="200"><path d="M352 102.4a25.6 25.6 0 0 1 25.6 25.6v70.4h230.4a25.6 25.6 0 1 1 0 51.2h-103.210667a409.6 409.6 0 0 1-114.346666 259.157333 358.4 358.4 0 0 0 201.941333 73.301334l88.746667-177.493334a25.6 25.6 0 0 1 45.781333 0l159.744 319.530667a28.8 28.8 0 0 1 0.512 0.938667l63.744 127.530666a25.6 25.6 0 1 1-45.824 22.869334L848.213333 761.6h-288.341333l-56.917333 113.834667a25.6 25.6 0 0 1-45.824-22.869334l63.786666-127.530666 0.426667-0.938667 46.293333-92.501333a409.6 409.6 0 0 1-215.594666-87.893334 409.6 409.6 0 0 1-256 89.898667 25.6 25.6 0 1 1 0-51.2 358.4 358.4 0 0 0 217.6-73.642667A409.6 409.6 0 0 1 221.866667 360.533333a25.6 25.6 0 0 1 48.256-17.066666 358.4 358.4 0 0 0 81.92 131.328 358.4 358.4 0 0 0 101.461333-225.194667H96a25.6 25.6 0 0 1 0-51.2h230.4V128a25.6 25.6 0 0 1 25.6-25.6z m278.656 517.546667l-45.226667 90.453333h237.141334L704 473.258667l-72.832 145.706666a25.002667 25.002667 0 0 1-0.512 0.938667z" fill="#515151" p-id="7535"></path></svg>