<?xml version="1.0" standalone="no"?><!DOCTYPE svg PUBLIC "-//W3C//DTD SVG 1.1//EN" "http://www.w3.org/Graphics/SVG/1.1/DTD/svg11.dtd"><svg t="1734574814375" class="icon" viewBox="0 0 1024 1024" version="1.1" xmlns="http://www.w3.org/2000/svg" p-id="7497" xmlns:xlink="http://www.w3.org/1999/xlink" width="200" height="200"><path d="M906.122449 220.190476h-92.081633v-102.312925C814.040816 56.598639 778.013605 0 711.619048 0H117.877551A119.727891 119.727891 0 0 0 0 117.877551v573.170068a119.727891 119.727891 0 0 0 117.877551 117.877551h92.081633v97.197279a119.727891 119.727891 0 0 0 117.768707 117.877551h578.394558a119.727891 119.727891 0 0 0 117.877551-117.877551V332.952381c0-66.938776-50.938776-112.761905-117.877551-112.761905zM215.07483 332.952381l-5.115646 425.034014h-97.306123c-36.027211 0-46.258503-41.251701-46.258503-76.190477v-522.448979c0-36.027211 15.455782-92.081633 51.482993-92.081633H696.598639c36.027211 0 56.163265 20.571429 56.163266 61.170068v87.07483h-414.693878c-72.054422 9.904762-122.993197 50.503401-122.993197 117.442177zM880.435374 946.938776H353.52381a67.482993 67.482993 0 0 1-66.394558-66.285715V353.52381a67.591837 67.591837 0 0 1 66.394558-66.394558h527.455782a67.591837 67.591837 0 0 1 65.959184 66.394558v522.448979c0 45.605442-30.47619 70.965986-66.503402 70.965987z m-56.054422-481.306123a40.054422 40.054422 0 0 0-20.680272-10.231292 26.993197 26.993197 0 0 0-20.571428 10.231292L558.258503 691.047619l-102.312925-102.421769a39.292517 39.292517 0 0 0-20.680272-10.231292 26.993197 26.993197 0 0 0-20.571428 10.231292l-15.346939 15.455783a38.530612 38.530612 0 0 0-10.340136 20.571428 26.340136 26.340136 0 0 0 10.340136 20.571429l133.22449 133.333333a31.891156 31.891156 0 0 0 36.02721 5.115646 38.530612 38.530612 0 0 0 20.571429-10.884353l256.217687-250.340136a38.204082 38.204082 0 0 0 10.884354-20.571429 26.77551 26.77551 0 0 0-10.884354-20.571429l-21.006803-15.455782z" fill="#4B4A4A" p-id="7498"></path></svg>