<?xml version="1.0" standalone="no"?><!DOCTYPE svg PUBLIC "-//W3C//DTD SVG 1.1//EN" "http://www.w3.org/Graphics/SVG/1.1/DTD/svg11.dtd"><svg t="1734399473332" class="icon" viewBox="0 0 1024 1024" version="1.1" xmlns="http://www.w3.org/2000/svg" p-id="5975" xmlns:xlink="http://www.w3.org/1999/xlink" width="200" height="200"><path d="M568.32 240.64H455.68v215.04H240.64V563.2h215.04v215.04H563.2V563.2h215.04V455.68H563.2V240.64z m0 0" fill="#503ea6" p-id="5976"></path><path d="M890.88 0H133.12C61.44 0 0 61.44 0 133.12v752.64C0 962.56 61.44 1024 133.12 1024h752.64c76.8 0 133.12-61.44 133.12-133.12V133.12C1024 61.44 962.56 0 890.88 0z m76.8 890.88c0 46.08-35.84 81.92-81.92 81.92H133.12c-46.08 0-81.92-35.84-81.92-81.92V133.12C51.2 87.04 87.04 51.2 133.12 51.2h752.64c46.08 0 81.92 35.84 81.92 81.92v757.76z m0 0" fill="#503ea6" p-id="5977"></path></svg>