<?xml version="1.0" standalone="no"?><!DOCTYPE svg PUBLIC "-//W3C//DTD SVG 1.1//EN" "http://www.w3.org/Graphics/SVG/1.1/DTD/svg11.dtd"><svg t="1724833455436" class="icon" viewBox="0 0 1024 1024" version="1.1" xmlns="http://www.w3.org/2000/svg" p-id="8394" xmlns:xlink="http://www.w3.org/1999/xlink" width="200" height="200"><path d="M938.666667 469.333333a85.333333 85.333333 0 0 1 85.333333 85.333334v213.333333a85.333333 85.333333 0 0 1-85.333333 85.333333H85.333333a85.333333 85.333333 0 0 1-85.333333-85.333333v-213.333333a85.333333 85.333333 0 0 1 85.333333-85.333334h853.333334zM282.922667 536.490667H169.258667V810.666667h44.970666v-105.216h67.968c66.816 0 100.224-28.416 100.224-84.864 0-56.064-33.408-84.096-99.456-84.096z m251.562666 0H420.821333V810.666667h44.928v-105.216h67.925334c66.858667 0 100.266667-28.416 100.266666-84.864 0-56.064-33.450667-84.096-99.498666-84.096z m341.333334 0h-224.64v38.4h89.898666V810.666667h44.928v-235.776h89.813334v-38.4z m-596.352 38.4c19.626667 0 34.176 3.456 43.434666 10.752 9.216 6.912 14.208 18.432 14.208 34.944 0 16.512-4.608 28.416-13.824 35.712-9.216 6.912-23.808 10.752-43.776 10.752H214.186667v-92.16h65.28z m251.52 0c19.626667 0 34.176 3.456 43.434666 10.752 9.216 6.912 14.208 18.432 14.208 34.944 0 16.512-4.608 28.416-13.824 35.712-9.216 6.912-23.808 10.752-43.818666 10.752h-65.28v-92.16h65.28z" fill="#008df0" p-id="8395"></path><path d="M609.408 10.538667l314.709333 275.370666a42.666667 42.666667 0 0 1 14.549334 32.128V896a128 128 0 0 1-120.490667 127.786667L810.666667 1024H213.333333a128 128 0 0 1-127.786666-120.490667L85.333333 896V128A128 128 0 0 1 205.824 0.213333L213.333333 0h367.957334a42.666667 42.666667 0 0 1 28.117333 10.538667zM512 85.333333H213.333333a42.666667 42.666667 0 0 0-42.368 37.674667L170.666667 128v768a42.666667 42.666667 0 0 0 37.674666 42.368L213.333333 938.666667h597.333334a42.666667 42.666667 0 0 0 42.368-37.674667L853.333333 896V384h-213.333333a128 128 0 0 1-127.146667-113.066667l-0.64-7.424L512 256V85.333333z m295.338667 213.333334L597.333333 103.808V256a42.666667 42.666667 0 0 0 37.674667 42.368L640 298.666667h167.338667z" fill="#008df0" p-id="8396"></path></svg>