<?xml version="1.0" standalone="no"?><!DOCTYPE svg PUBLIC "-//W3C//DTD SVG 1.1//EN" "http://www.w3.org/Graphics/SVG/1.1/DTD/svg11.dtd"><svg t="1734575049972" class="icon" viewBox="0 0 1024 1024" version="1.1" xmlns="http://www.w3.org/2000/svg" p-id="9836" xmlns:xlink="http://www.w3.org/1999/xlink" width="200" height="200"><path d="M905.841778 1024H118.158222A118.328889 118.328889 0 0 1 0 905.841778V118.158222A118.328889 118.328889 0 0 1 118.158222 0h787.683556A118.328889 118.328889 0 0 1 1024 118.158222v787.683556A118.328889 118.328889 0 0 1 905.841778 1024zM118.158222 78.791111a39.424 39.424 0 0 0-39.367111 39.367111v787.683556c0 21.731556 17.635556 39.367111 39.367111 39.367111h787.683556c21.731556 0 39.367111-17.635556 39.367111-39.367111V118.158222a39.424 39.424 0 0 0-39.367111-39.367111H118.158222z m380.984889 605.297778l283.477333-272.440889a41.073778 41.073778 0 0 0 0-58.197333 41.073778 41.073778 0 0 0-58.254222 0l-254.407111 243.2-115.2-113.493334a41.073778 41.073778 0 0 0-58.197333 0 41.073778 41.073778 0 0 0 0 58.197334l144.327111 142.620444a41.244444 41.244444 0 0 0 58.254222 0.056889z" fill="#515151" p-id="9837"></path></svg>