<?xml version="1.0" standalone="no"?><!DOCTYPE svg PUBLIC "-//W3C//DTD SVG 1.1//EN" "http://www.w3.org/Graphics/SVG/1.1/DTD/svg11.dtd"><svg t="1722841045694" class="icon" viewBox="0 0 1024 1024" version="1.1" xmlns="http://www.w3.org/2000/svg" p-id="10227" xmlns:xlink="http://www.w3.org/1999/xlink" width="200" height="200"><path d="M512 53.376c-22.208 0-41.792 0-59.264 0.384-8.704 0.192-16.96 0.448-24.704 0.896a392.192 392.192 0 0 0-22.144 1.728c-7.04 0.768-13.824 1.728-20.416 3.136a144.192 144.192 0 0 0-18.816 5.504 98.624 98.624 0 0 0-17.152 8.32 77.952 77.952 0 0 0-22.272 21.376 98.24 98.24 0 0 0-11.52 20.288 95.232 95.232 0 0 0-5.76 20.608 74.112 74.112 0 0 0-0.064 19.136 90.048 90.048 0 0 0 4.224 18.752 187.776 187.776 0 0 0 12.032 27.648c3.2 6.016 6.784 12.16 10.752 18.56 3.968 6.464 8.32 13.248 12.992 20.288 7.936 11.84 16.896 24.64 26.88 38.912l10.624 15.04c8.192 11.712 15.616 22.272 22.592 31.808 4.224 5.696 8.32 10.944 12.288 16 3.968 4.992 7.872 9.728 11.84 14.08a173.44 173.44 0 0 0 18.88 18.176 111.552 111.552 0 0 0 21.632 13.248 80.512 80.512 0 0 0 16.256 5.248 104.704 104.704 0 0 0 42.24 0 79.488 79.488 0 0 0 23.744-8.96 99.84 99.84 0 0 0 14.08-9.6 173.632 173.632 0 0 0 18.88-18.112c4.032-4.352 7.936-9.088 11.904-14.08 4.032-5.056 8.064-10.304 12.288-16 7.04-9.6 14.4-20.096 22.592-31.808l10.56-15.04c10.048-14.272 19.008-27.072 26.944-38.912 4.736-7.04 9.024-13.824 12.992-20.224 3.968-6.464 7.552-12.608 10.752-18.624 3.2-6.08 6.144-12.16 8.64-18.304a139.072 139.072 0 0 0 6.016-18.752 89.216 89.216 0 0 0 2.112-18.816 73.92 73.92 0 0 0-6.4-30.272 99.392 99.392 0 0 0-18.88-29.248 76.416 76.416 0 0 0-23.04-17.024A116.928 116.928 0 0 0 638.464 59.52a217.28 217.28 0 0 0-20.416-3.072 392.256 392.256 0 0 0-22.08-1.728C588.16 54.208 580.032 53.952 571.2 53.76A3009.088 3009.088 0 0 0 512 53.376z m0 64c22.208 0 41.536 0 57.984 0.384 8.32 0.128 15.808 0.384 22.656 0.768 6.784 0.32 12.928 0.768 18.368 1.344 5.376 0.64 9.984 1.344 13.76 2.112 3.776 0.832 6.784 1.664 9.216 2.56a31.36 31.36 0 0 1 5.632 2.432 13.312 13.312 0 0 1 3.008 2.368 33.408 33.408 0 0 1 7.744 13.76 9.792 9.792 0 0 1 0.384 3.008c0 1.28-0.32 3.136-0.896 5.248a58.368 58.368 0 0 1-2.752 8c-1.28 3.2-3.2 7.04-5.632 11.52-2.368 4.48-5.312 9.6-8.704 15.104-3.456 5.568-7.488 11.648-11.904 18.24-8.768 13.248-19.392 28.48-31.744 46.08-10.176 14.464-19.008 26.944-26.752 37.44-3.84 5.248-7.552 10.048-10.88 14.272-3.328 4.224-6.4 7.936-9.216 11.136a128.64 128.64 0 0 1-7.68 7.872 55.552 55.552 0 0 1-5.824 4.864 27.2 27.2 0 0 1-4.672 2.752 18.624 18.624 0 0 1-3.84 1.28 41.216 41.216 0 0 1-16.512 0 18.688 18.688 0 0 1-3.84-1.28 27.2 27.2 0 0 1-4.672-2.752 55.616 55.616 0 0 1-5.888-4.864 128.64 128.64 0 0 1-7.616-7.872 237.568 237.568 0 0 1-9.216-11.136 541.376 541.376 0 0 1-10.88-14.272c-7.744-10.496-16.64-23.04-26.752-37.504a2466.432 2466.432 0 0 1-31.744-46.016 673.92 673.92 0 0 1-11.904-18.24 275.008 275.008 0 0 1-8.704-15.104 139.52 139.52 0 0 1-5.632-11.52 58.112 58.112 0 0 1-2.752-8 24.704 24.704 0 0 1-0.896-5.248 9.6 9.6 0 0 1 0.384-3.008 33.152 33.152 0 0 1 7.744-13.76 13.44 13.44 0 0 1 3.008-2.368 31.36 31.36 0 0 1 5.632-2.496c2.432-0.832 5.44-1.664 9.216-2.496 3.84-0.768 8.32-1.472 13.76-2.112 5.44-0.64 11.52-1.024 18.368-1.344 6.848-0.384 14.4-0.64 22.656-0.768 16.448-0.32 35.776-0.384 57.984-0.384zM512 629.376a105.984 105.984 0 0 0-21.12 2.112 78.912 78.912 0 0 0-16.64 5.376 86.272 86.272 0 0 0-21.632 13.44 180.608 180.608 0 0 0-18.56 17.92 297.856 297.856 0 0 0-11.392 13.504c-3.968 4.928-7.872 10.24-12.032 15.872-8.32 11.328-17.28 24-27.008 37.76l-1.088 1.664-1.28 1.728c-11.776 16.768-22.528 32.192-31.872 46.08-4.672 7.04-8.96 13.568-12.864 19.904a337.216 337.216 0 0 0-10.368 18.112c-3.072 5.76-6.016 11.648-8.512 17.664a132.288 132.288 0 0 0-6.016 18.496 91.008 91.008 0 0 0-2.24 19.2 74.432 74.432 0 0 0 6.4 30.784 98.368 98.368 0 0 0 18.88 29.248 73.728 73.728 0 0 0 15.104 12.48 88.832 88.832 0 0 0 17.472 8.512 115.968 115.968 0 0 0 18.88 5.376c6.528 1.344 13.12 2.304 19.776 3.008 6.656 0.768 13.824 1.28 21.504 1.728 7.68 0.448 15.808 0.704 24.512 0.896 17.28 0.384 36.736 0.384 58.112 0.384h3.968c21.376 0 40.768 0 58.112-0.384 8.704-0.192 16.832-0.448 24.512-0.896 7.68-0.384 14.848-0.96 21.504-1.728 6.656-0.704 13.248-1.664 19.776-3.008a145.664 145.664 0 0 0 18.88-5.376 89.088 89.088 0 0 0 25.408-14.272c2.496-2.048 4.864-4.224 7.232-6.72a100.416 100.416 0 0 0 13.696-18.752 97.664 97.664 0 0 0 8.896-21.504 71.296 71.296 0 0 0 2.624-19.712 81.024 81.024 0 0 0-2.24-19.264 112 112 0 0 0-6.016-18.56 192.32 192.32 0 0 0-8.512-17.6 339.392 339.392 0 0 0-10.368-18.112 661.632 661.632 0 0 0-12.864-19.84 2504.192 2504.192 0 0 0-31.872-46.144l-2.368-3.392a2017.92 2017.92 0 0 0-27.008-37.76 574.464 574.464 0 0 0-12.032-15.872 297.856 297.856 0 0 0-11.52-13.568 180.608 180.608 0 0 0-18.432-17.92 110.912 110.912 0 0 0-14.016-9.6 86.272 86.272 0 0 0-24.256-9.152A104.896 104.896 0 0 0 512 629.376z m0 64c2.752 0 5.504 0.192 8.256 0.768a27.648 27.648 0 0 1 8 3.776c1.728 1.152 3.84 2.688 6.144 4.8a237.248 237.248 0 0 1 17.344 19.392c3.328 4.224 6.848 8.96 10.624 14.08 7.616 10.432 16.32 22.72 26.752 37.568 12.544 17.92 23.04 33.024 31.744 46.016 4.352 6.4 8.192 12.48 11.648 17.92 3.392 5.568 6.4 10.688 8.96 15.424 2.56 4.864 4.544 8.768 5.888 12.16a54.528 54.528 0 0 1 2.624 8.192c0.512 2.176 0.64 3.712 0.64 4.928a10.048 10.048 0 0 1-0.256 2.496 34.496 34.496 0 0 1-7.744 13.76 12.736 12.736 0 0 1-2.56 2.112 28.8 28.8 0 0 1-5.44 2.496 69.12 69.12 0 0 1-9.344 2.56 145.92 145.92 0 0 1-14.272 2.304 666.56 666.56 0 0 1-40.96 2.24c-13.632 0.256-29.248 0.256-47.168 0.256h-21.76c-17.92 0-33.536 0-47.104-0.256a666.624 666.624 0 0 1-40.96-2.24 145.92 145.92 0 0 1-14.272-2.24 69.056 69.056 0 0 1-9.408-2.624 28.672 28.672 0 0 1-5.376-2.56 12.672 12.672 0 0 1-2.624-2.048 34.624 34.624 0 0 1-7.744-13.76 9.984 9.984 0 0 1-0.256-2.56c0-1.152 0.128-2.688 0.64-4.864a54.4 54.4 0 0 1 2.56-8.192c1.408-3.392 3.328-7.296 5.952-12.16 2.56-4.736 5.568-9.856 8.96-15.36a606.08 606.08 0 0 1 11.648-17.984c8.704-12.992 19.2-28.16 31.744-46.08 10.432-14.72 19.136-27.072 26.752-37.44 3.84-5.12 7.296-9.92 10.624-14.08a237.248 237.248 0 0 1 17.344-19.456 54.848 54.848 0 0 1 6.144-4.864 27.648 27.648 0 0 1 8-3.712 41.024 41.024 0 0 1 8.256-0.768zM730.624 484.224a32 32 0 0 1 16-4.224H896a32 32 0 0 1 24.512 11.392A32.32 32.32 0 0 1 928 512a32 32 0 0 1-32 32h-149.376a32 32 0 0 1-16-59.776zM426.624 480a32 32 0 1 0 0 64h170.752a32 32 0 1 0 0-64H426.624zM112 484.224A32 32 0 0 1 128 480h149.376a32 32 0 0 1 27.776 16 32 32 0 0 1 4.224 16 32 32 0 0 1-32 32H128a32 32 0 0 1-16-59.776z" fill="#333333" p-id="10228"></path></svg>