<?xml version="1.0" standalone="no"?><!DOCTYPE svg PUBLIC "-//W3C//DTD SVG 1.1//EN" "http://www.w3.org/Graphics/SVG/1.1/DTD/svg11.dtd"><svg t="1722841086046" class="icon" viewBox="0 0 1024 1024" version="1.1" xmlns="http://www.w3.org/2000/svg" p-id="10389" xmlns:xlink="http://www.w3.org/1999/xlink" width="200" height="200"><path d="M506.56 53.376c-41.728 0-73.856 0-100.672 3.008-27.968 3.136-53.12 9.92-71.232 29.376a97.472 97.472 0 0 0-22.656 40.256c-7.168 25.792 1.152 50.944 14.08 75.136 12.608 23.424 30.72 49.216 54.272 82.816l4.608 6.528c19.136 27.264 33.984 48.448 49.152 65.408 15.808 17.6 33.92 31.936 56.768 36.608 13.888 2.816 28.352 2.816 42.24 0 22.848-4.672 40.96-19.008 56.768-36.608 15.168-16.96 30.016-38.144 49.152-65.408l4.608-6.528c23.552-33.6 41.6-59.392 54.208-82.816 12.992-24.192 21.312-49.344 14.144-75.136a97.728 97.728 0 0 0-22.656-40.32c-18.112-19.392-43.264-26.24-71.232-29.312C590.144 53.12 556.416 53.376 512 53.376h-5.44zM490.88 631.488c-22.848 4.672-40.96 19.008-56.768 36.608-15.168 16.96-30.016 38.08-49.088 65.344l-4.672 6.592c-23.552 33.6-41.664 59.392-54.208 82.816-12.992 24.192-21.312 49.344-14.144 75.136 4.16 15.04 12.032 28.864 22.656 40.32 18.112 19.392 43.264 26.24 71.232 29.312 26.816 3.008 58.944 3.008 100.736 3.008h10.88c41.728 0 73.792 0 100.608-3.008 27.968-3.136 53.12-9.92 71.296-29.376 10.56-11.392 18.432-25.216 22.592-40.256 7.168-25.792-1.152-50.944-14.08-75.136-12.608-23.424-30.72-49.216-54.272-82.816l-4.672-6.592c-19.072-27.264-33.92-48.384-49.088-65.28-15.808-17.664-33.92-32-56.768-36.672a105.6 105.6 0 0 0-42.24 0zM105.344 489.344A32 32 0 0 1 128 480h149.376a32 32 0 1 1 0 64H128a32 32 0 0 1-22.656-54.656zM403.968 489.344a32 32 0 0 1 22.656-9.344h170.752a32 32 0 1 1 0 64H426.624a32 32 0 0 1-22.656-54.656zM724.032 489.344a32 32 0 0 1 22.592-9.344H896a32 32 0 1 1 0 64h-149.376a32 32 0 0 1-22.656-54.656z" fill="#333333" p-id="10390"></path></svg>