<?xml version="1.0" standalone="no"?><!DOCTYPE svg PUBLIC "-//W3C//DTD SVG 1.1//EN" "http://www.w3.org/Graphics/SVG/1.1/DTD/svg11.dtd"><svg t="1722587165016" class="icon" viewBox="0 0 1024 1024" version="1.1" xmlns="http://www.w3.org/2000/svg" p-id="24308" xmlns:xlink="http://www.w3.org/1999/xlink" width="200" height="200"><path d="M543.404912 1024L24.824586 505.424037V122.918574h382.5011L925.910376 641.503264z" fill="#FFD24A" p-id="24309"></path><path d="M220.929654 305.932807m-65.711627 0a65.711627 65.711627 0 1 0 131.423253 0 65.711627 65.711627 0 1 0-131.423253 0Z" fill="#FFFFFF" p-id="24310"></path><path d="M220.929654 393.462492c-48.265908 0-87.529684-39.268141-87.529685-87.529685s39.268141-87.529684 87.529685-87.529684S308.459338 257.6669 308.459338 305.932807s-39.268141 87.529684-87.529684 87.529685z m0-131.423254c-24.20059 0-43.893569 19.692979-43.893569 43.893569s19.692979 43.893569 43.893569 43.893569S264.823223 330.133397 264.823223 305.932807s-19.692979-43.893569-43.893569-43.893569z" fill="#DB8F44" p-id="24311"></path><path d="M754.813166 244.362248m-244.362248 0a244.362248 244.362248 0 1 0 488.724496 0 244.362248 244.362248 0 1 0-488.724496 0Z" fill="#00CCC6" p-id="24312"></path><path d="M900.343975 204.500656h-102.763052v-102.763052h-65.454174v102.763052h-102.763052v65.454174h102.763052v102.758689h65.454174V269.95483h102.763052z" fill="#F5F5F5" p-id="24313"></path></svg>