<?xml version="1.0" standalone="no"?><!DOCTYPE svg PUBLIC "-//W3C//DTD SVG 1.1//EN" "http://www.w3.org/Graphics/SVG/1.1/DTD/svg11.dtd"><svg t="1740447095772" class="icon" viewBox="0 0 1024 1024" version="1.1" xmlns="http://www.w3.org/2000/svg" p-id="2341" xmlns:xlink="http://www.w3.org/1999/xlink" width="32" height="32"><path d="M137.6 254.912a32 32 0 0 1 32-32h682.688a32 32 0 0 1 0 64H169.6a32 32 0 0 1-32-32zM137.6 510.912a32 32 0 0 1 32-32h682.688a32 32 0 0 1 0 64H169.6a32 32 0 0 1-32-32zM169.6 734.912a32 32 0 0 0 0 64h682.688a32 32 0 1 0 0-64H169.6z" fill="#333333" p-id="2342"></path></svg>